999
dxfrw 0.5.11
0
SECTION
2
HEADER
9
$ACADVER
1
AC1021
9
$HANDSEED
5
20000
9
$DWGCODEPAGE
3
ANSI_1252
9
$INSBASE
10
0
20
0
30
0
9
$EXTMIN
10
168
20
-74
30
0
9
$EXTMAX
10
15856
20
2863
30
0
9
$LIMMIN
10
0
20
0
9
$LIMMAX
10
420
20
297
9
$ORTHOMODE
70
0
9
$LTSCALE
40
1
9
$TEXTSTYLE
7
STANDARD
9
$CLAYER
8
0
9
$DIMASZ
40
2.5
9
$DIMLFAC
40
1
9
$DIMSCALE
40
1
9
$DIMEXO
40
0.625
9
$DIMEXE
40
1.25
9
$DIMTXT
40
2.5
9
$DIMTSZ
40
0
9
$DIMAUNIT
70
0
9
$DIMADEC
70
0
9
$DIMLUNIT
70
2
9
$DIMSTYLE
2
Standard
9
$DIMGAP
40
0.625
9
$DIMTIH
70
0
9
$LUNITS
70
2
9
$LUPREC
70
4
9
$AUNITS
70
0
9
$AUPREC
70
2
9
$SPLINESEGS
70
8
9
$SNAPSTYLE
70
0
9
$PINSBASE
10
0
20
0
30
0
9
$PLIMMIN
10
0
20
0
9
$PLIMMAX
10
210
20
297
9
$INSUNITS
70
4
9
$PSVPSCALE
40
1
0
ENDSEC
0
SECTION
2
CLASSES
0
ENDSEC
0
SECTION
2
TABLES
0
TABLE
2
VPORT
5
8
330
0
100
AcDbSymbolTable
70
1
0
VPORT
5
31
330
2
100
AcDbSymbolTableRecord
100
AcDbViewportTableRecord
2
*ACTIVE
70
0
10
0
20
0
11
1
21
1
12
4125.69019235
22
531.583782658
13
0
23
0
14
10
24
10
15
10
25
10
16
0
26
0
36
1
17
0
27
0
37
0
40
304.667652859
41
1.47711511789
42
50
43
0
44
0
50
0
51
0
71
0
72
100
73
1
74
3
75
0
76
1
77
0
78
0
281
0
65
1
110
0
120
0
130
0
111
1
121
0
131
0
112
0
122
1
132
0
79
0
146
0
348
10020
60
7
61
5
292
1
282
1
141
0
142
0
63
250
421
3358443
0
ENDTAB
0
TABLE
2
LTYPE
5
5
330
0
100
AcDbSymbolTable
70
4
0
LTYPE
5
14
330
5
100
AcDbSymbolTableRecord
100
AcDbLinetypeTableRecord
2
ByBlock
70
0
3

72
65
73
0
40
0
0
LTYPE
5
15
330
5
100
AcDbSymbolTableRecord
100
AcDbLinetypeTableRecord
2
ByLayer
70
0
3

72
65
73
0
40
0
0
LTYPE
5
16
330
5
100
AcDbSymbolTableRecord
100
AcDbLinetypeTableRecord
2
Continuous
70
0
3
Solid line
72
65
73
0
40
0
0
LTYPE
5
32
330
5
100
AcDbSymbolTableRecord
100
AcDbLinetypeTableRecord
2
DOT
70
0
3
Dot . . . . . . . . . . . . . . . . . . . . . .
72
65
73
2
40
6.35
49
0
74
0
49
-6.35
74
0
0
LTYPE
5
33
330
5
100
AcDbSymbolTableRecord
100
AcDbLinetypeTableRecord
2
DOT2
70
0
3
Dot (.5x) .....................................
72
65
73
2
40
3.175
49
0
74
0
49
-3.175
74
0
0
LTYPE
5
34
330
5
100
AcDbSymbolTableRecord
100
AcDbLinetypeTableRecord
2
DOTX2
70
0
3
Dot (2x) .  .  .  .  .  .  .  .  .  .  .  .  .
72
65
73
2
40
12.7
49
0
74
0
49
-12.7
74
0
0
LTYPE
5
35
330
5
100
AcDbSymbolTableRecord
100
AcDbLinetypeTableRecord
2
DASHED
70
0
3
Dot . . . . . . . . . . . . . . . . . . . . . .
72
65
73
2
40
19.05
49
12.7
74
0
49
-6.35
74
0
0
LTYPE
5
36
330
5
100
AcDbSymbolTableRecord
100
AcDbLinetypeTableRecord
2
DASHED2
70
0
3
Dashed (.5x) _ _ _ _ _ _ _ _ _ _ _ _ _ _ _ _ _
72
65
73
2
40
9.525
49
6.35
74
0
49
-3.175
74
0
0
LTYPE
5
37
330
5
100
AcDbSymbolTableRecord
100
AcDbLinetypeTableRecord
2
DASHEDX2
70
0
3
Dashed (2x) ____  ____  ____  ____  ____  ___
72
65
73
2
40
38.1
49
25.4
74
0
49
-12.7
74
0
0
LTYPE
5
38
330
5
100
AcDbSymbolTableRecord
100
AcDbLinetypeTableRecord
2
DASHDOT
70
0
3
Dash dot __ . __ . __ . __ . __ . __ . __ . __
72
65
73
4
40
25.4
49
12.7
74
0
49
-6.35
74
0
49
0
74
0
49
-6.35
74
0
0
LTYPE
5
39
330
5
100
AcDbSymbolTableRecord
100
AcDbLinetypeTableRecord
2
DASHDOT2
70
0
3
Dash dot (.5x) _._._._._._._._._._._._._._._.
72
65
73
4
40
12.7
49
6.35
74
0
49
-3.175
74
0
49
0
74
0
49
-3.175
74
0
0
LTYPE
5
3A
330
5
100
AcDbSymbolTableRecord
100
AcDbLinetypeTableRecord
2
DASHDOTX2
70
0
3
Dash dot (2x) ____  .  ____  .  ____  .  ___
72
65
73
4
40
50.8
49
25.4
74
0
49
-12.7
74
0
49
0
74
0
49
-12.7
74
0
0
LTYPE
5
3B
330
5
100
AcDbSymbolTableRecord
100
AcDbLinetypeTableRecord
2
DIVIDE
70
0
3
Divide ____ . . ____ . . ____ . . ____ . . ____
72
65
73
6
40
31.75
49
12.7
74
0
49
-6.35
74
0
49
0
74
0
49
-6.35
74
0
49
0
74
0
49
-6.35
74
0
0
LTYPE
5
3C
330
5
100
AcDbSymbolTableRecord
100
AcDbLinetypeTableRecord
2
DIVIDE2
70
0
3
Divide (.5x) __..__..__..__..__..__..__..__.._
72
65
73
6
40
15.875
49
6.35
74
0
49
-3.175
74
0
49
0
74
0
49
-3.175
74
0
49
0
74
0
49
-3.175
74
0
0
LTYPE
5
3D
330
5
100
AcDbSymbolTableRecord
100
AcDbLinetypeTableRecord
2
DIVIDEX2
70
0
3
Divide (2x) ________  .  .  ________  .  .  _
72
65
73
6
40
63.5
49
25.4
74
0
49
-12.7
74
0
49
0
74
0
49
-12.7
74
0
49
0
74
0
49
-12.7
74
0
0
LTYPE
5
3E
330
5
100
AcDbSymbolTableRecord
100
AcDbLinetypeTableRecord
2
BORDER
70
0
3
Border __ __ . __ __ . __ __ . __ __ . __ __ .
72
65
73
6
40
44.45
49
12.7
74
0
49
-6.35
74
0
49
12.7
74
0
49
-6.35
74
0
49
0
74
0
49
-6.35
74
0
0
LTYPE
5
3F
330
5
100
AcDbSymbolTableRecord
100
AcDbLinetypeTableRecord
2
BORDER2
70
0
3
Border (.5x) __.__.__.__.__.__.__.__.__.__.__.
72
65
73
6
40
22.225
49
6.35
74
0
49
-3.175
74
0
49
6.35
74
0
49
-3.175
74
0
49
0
74
0
49
-3.175
74
0
0
LTYPE
5
40
330
5
100
AcDbSymbolTableRecord
100
AcDbLinetypeTableRecord
2
BORDERX2
70
0
3
Border (2x) ____  ____  .  ____  ____  .  ___
72
65
73
6
40
88.9
49
25.4
74
0
49
-12.7
74
0
49
25.4
74
0
49
-12.7
74
0
49
0
74
0
49
-12.7
74
0
0
LTYPE
5
41
330
5
100
AcDbSymbolTableRecord
100
AcDbLinetypeTableRecord
2
CENTER
70
0
3
Center ____ _ ____ _ ____ _ ____ _ ____ _ ____
72
65
73
4
40
50.8
49
31.75
74
0
49
-6.35
74
0
49
6.35
74
0
49
-6.35
74
0
0
LTYPE
5
42
330
5
100
AcDbSymbolTableRecord
100
AcDbLinetypeTableRecord
2
CENTER2
70
0
3
Center (.5x) ___ _ ___ _ ___ _ ___ _ ___ _ ___
72
65
73
4
40
28.575
49
19.05
74
0
49
-3.175
74
0
49
3.175
74
0
49
-3.175
74
0
0
LTYPE
5
43
330
5
100
AcDbSymbolTableRecord
100
AcDbLinetypeTableRecord
2
CENTERX2
70
0
3
Center (2x) ________  __  ________  __  _____
72
65
73
4
40
101.6
49
63.5
74
0
49
-12.7
74
0
49
12.7
74
0
49
-12.7
74
0
0
ENDTAB
0
TABLE
2
LAYER
5
2
330
0
100
AcDbSymbolTable
70
1
0
LAYER
5
10
330
2
100
AcDbSymbolTableRecord
100
AcDbLayerTableRecord
2
0
70
0
62
7
6
CONTINUOUS
370
0
390
F
0
ENDTAB
0
TABLE
2
STYLE
5
3
330
0
100
AcDbSymbolTable
70
3
0
STYLE
5
44
330
2
100
AcDbSymbolTableRecord
100
AcDbTextStyleTableRecord
2
Standard
70
0
40
0
41
1
50
0
71
0
42
1
3
txt
4

0
ENDTAB
0
TABLE
2
VIEW
5
6
330
0
100
AcDbSymbolTable
70
0
0
ENDTAB
0
TABLE
2
UCS
5
7
330
0
100
AcDbSymbolTable
70
0
0
ENDTAB
0
TABLE
2
APPID
5
9
330
0
100
AcDbSymbolTable
70
1
0
APPID
5
12
330
9
100
AcDbSymbolTableRecord
100
AcDbRegAppTableRecord
2
ACAD
70
0
0
ENDTAB
0
TABLE
2
DIMSTYLE
5
A
330
0
100
AcDbSymbolTable
70
1
100
AcDbDimStyleTable
71
1
0
DIMSTYLE
105
45
330
A
100
AcDbSymbolTableRecord
100
AcDbDimStyleTableRecord
2
Standard
70
0
40
1
41
2.5
42
0.625
43
0.38
44
1.25
45
0
46
0
47
0
48
0
140
2.5
141
0.09
142
0
143
25.4
144
1
145
0
146
1
147
0.625
148
0
71
0
72
0
73
0
74
1
75
0
76
0
77
0
78
0
79
0
170
0
171
2
172
0
173
0
174
0
175
0
176
0
177
0
178
0
179
0
271
4
272
4
273
2
274
2
275
0
276
0
277
2
278
46
279
0
280
0
281
0
282
0
283
1
284
0
285
0
286
0
288
0
289
3
340
Standard
341

371
-2
372
-2
0
ENDTAB
0
TABLE
2
BLOCK_RECORD
5
1
330
0
100
AcDbSymbolTable
70
2
0
BLOCK_RECORD
5
1F
330
1
100
AcDbSymbolTableRecord
100
AcDbBlockTableRecord
2
*Model_Space
70
0
280
1
281
0
0
BLOCK_RECORD
5
1E
330
1
100
AcDbSymbolTableRecord
100
AcDbBlockTableRecord
2
*Paper_Space
70
0
280
1
281
0
0
ENDTAB
0
ENDSEC
0
SECTION
2
BLOCKS
0
BLOCK
5
20
330
1F
100
AcDbEntity
8
0
100
AcDbBlockBegin
2
*Model_Space
70
0
10
0
20
0
30
0
3
*Model_Space
1

0
ENDBLK
5
21
330
1F
100
AcDbEntity
8
0
100
AcDbBlockEnd
0
BLOCK
5
1C
330
1B
100
AcDbEntity
8
0
100
AcDbBlockBegin
2
*Paper_Space
70
0
10
0
20
0
30
0
3
*Paper_Space
1

0
ENDBLK
5
1D
330
1F
100
AcDbEntity
8
0
100
AcDbBlockEnd
0
ENDSEC
0
SECTION
2
ENTITIES
0
LWPOLYLINE
5
46
100
AcDbEntity
8
0
6
ByLayer
62
256
370
-1
100
AcDbPolyline
90
131
70
0
43
0
10
7996.45013386
20
993.702932994
42
-0.0173
10
7997.54018086
20
993.665128994
42
-0.0169
10
7998.62513386
20
993.552932994
42
-0.0168
10
7999.72494886
20
993.363637994
42
-0.0158
10
8000.81013386
20
993.102932994
42
0.0021
10
8001.67564586
20
992.873725994
42
0.007
10
8002.54513386
20
992.660432994
42
-0.0034
10
8002.95494386
20
992.563032994
42
0.0601
10
8003.37013386
20
992.512932994
42
0.0965
10
8003.79259686
20
992.595197994
42
0.0669
10
8004.17013386
20
992.810432994
42
0.0615
10
8004.58960286
20
993.220807994
42
0.0293
10
8004.93013386
20
993.702932994
10
8006.16013386
20
993.702932994
10
8004.07013386
20
984.112932994
10
8002.76013386
20
984.362932994
42
0.0078
10
8002.81157586
20
984.735917994
42
0.0094
10
8002.85013386
20
985.110432994
42
0.0094
10
8002.87227786
20
985.451383994
42
0.0115
10
8002.88013386
20
985.792932994
42
0.0299
10
8002.79903486
20
987.146403994
42
0.044
10
8002.52013386
20
988.470432994
42
0.045
10
8002.08153186
20
989.551214994
42
0.054
10
8001.44013386
20
990.522932994
42
0.0553
10
8000.66827686
20
991.274870994
42
0.0611
10
7999.74513386
20
991.827932994
42
0.0601
10
7998.65727486
20
992.161683994
42
0.0444
10
7997.52013386
20
992.262932994
42
0.0402
10
7996.45470986
20
992.177152994
42
0.0403
10
7995.41680086
20
991.921821994
42
0.04
10
7994.38477386
20
991.483380994
42
0.0332
10
7993.42680086
20
990.898488994
42
0.0329
10
7992.43996386
20
990.099989994
42
0.0245
10
7991.55013386
20
989.192932994
42
0.0171
10
7990.68038886
20
988.140868994
42
0.0171
10
7989.88457786
20
987.031821994
42
0.0171
10
7989.15948286
20
985.859838994
42
0.0165
10
7988.51457786
20
984.641821994
42
0.0165
10
7987.93573586
20
983.349506994
42
0.0153
10
7987.44013386
20
982.022932994
42
0.0116
10
7987.02099186
20
980.689042994
42
0.013
10
7986.66791186
20
979.336265994
42
0.013
10
7986.40053486
20
978.039229994
42
0.0144
10
7986.20457786
20
976.729599994
42
0.0144
10
7986.08951486
20
975.468534994
42
0.0156
10
7986.05013386
20
974.202932994
42
0.0301
10
7986.14129586
20
972.689606994
42
0.0452
10
7986.45763386
20
971.210432994
42
0.0464
10
7986.95323286
20
970.017544994
42
0.0564
10
7987.68013386
20
968.952932994
42
0.0562
10
7988.57298686
20
968.135620994
42
0.0586
10
7989.62763386
20
967.542932994
42
0.0574
10
7990.88356486
20
967.181387994
42
0.0414
10
7992.19013386
20
967.072932994
42
0.0167
10
7992.83416686
20
967.094508994
42
0.0178
10
7993.47513386
20
967.160432994
42
0.0178
10
7994.09735486
20
967.269511994
42
0.0181
10
7994.71013386
20
967.422932994
42
0.0091
10
7995.27036586
20
967.596084994
42
0.0122
10
7995.82263386
20
967.792932994
42
0.0122
10
7996.28739886
20
967.984638994
42
0.0168
10
7996.74013386
20
968.202932994
42
0.0184
10
7997.16362986
20
968.445314994
42
0.0149
10
7997.57013386
20
968.715432994
42
0.0149
10
7998.00420286
20
969.042736994
42
0.012
10
7998.42013386
20
969.392932994
42
0.0032
10
7998.79069586
20
969.724592994
42
0.006
10
7999.15513386
20
970.062932994
42
0.0054
10
7999.40243886
20
970.303256994
42
0.014
10
7999.64013386
20
970.552932994
42
0.0042
10
7999.85296586
20
970.792791994
42
0.0024
10
8000.06263386
20
971.035432994
42
0.0024
10
8000.32763486
20
971.348128994
42
0.0016
10
8000.59013386
20
971.662932994
42
-0.003
10
8000.64457786
20
971.734613994
42
-0.0048
10
8000.70013386
20
971.805432994
42
-0.0047
10
8000.74443886
20
971.859768994
42
-0.0083
10
8000.79013386
20
971.912932994
10
8002.02013386
20
971.012932994
42
-0.0112
10
8001.22013786
20
969.974162994
42
-0.0173
10
8000.36263386
20
968.982932994
42
-0.0171
10
7999.62786686
20
968.242946994
42
-0.0281
10
7998.83013386
20
967.572932994
42
-0.0253
10
7997.64323686
20
966.766065994
42
-0.0278
10
7996.37791186
20
966.089599994
42
-0.0278
10
7995.07772186
20
965.570718994
42
-0.0279
10
7993.72791186
20
965.199599994
42
-0.0278
10
7992.31210186
20
964.975540994
42
-0.0253
10
7990.88013386
20
964.902932994
42
-0.0183
10
7989.68659386
20
964.946672994
42
-0.0219
10
7988.50075886
20
965.086057994
42
-0.0219
10
7987.41865786
20
965.310627994
42
-0.0249
10
7986.36263386
20
965.635432994
42
-0.025
10
7985.39056486
20
966.044462994
42
-0.0264
10
7984.46575886
20
966.551057994
42
-0.0264
10
7983.60460686
20
967.148861994
42
-0.0256
10
7982.81013386
20
967.832932994
42
-0.0255
10
7982.09674486
20
968.586860994
42
-0.0274
10
7981.46700886
20
969.411682994
42
-0.0274
10
7980.93828486
20
970.288727994
42
-0.0269
10
7980.50763386
20
971.217932994
42
-0.0268
10
7980.16809586
20
972.220014994
42
-0.0241
10
7979.93200886
20
973.251682994
42
-0.024
10
7979.78607286
20
974.377875994
42
-0.0202
10
7979.74013386
20
975.512932994
42
-0.0118
10
7979.76483786
20
976.558474994
42
-0.0127
10
7979.84074586
20
977.601503994
42
-0.0127
10
7979.96550686
20
978.606893994
42
-0.0134
10
7980.14258286
20
979.604361994
42
-0.0134
10
7980.36797086
20
980.569804994
42
-0.0139
10
7980.64564386
20
981.521503994
42
-0.0139
10
7980.97230586
20
982.447020994
42
-0.014
10
7981.34992986
20
983.352932994
42
-0.014
10
7981.77850086
20
984.238327994
42
-0.0137
10
7982.25543986
20
985.098646994
42
-0.0137
10
7982.78645486
20
985.943531994
42
-0.0132
10
7983.36217486
20
986.758646994
42
-0.0132
10
7983.99600186
20
987.562505994
42
-0.0124
10
7984.67013386
20
988.332932994
42
-0.0144
10
7985.49490386
20
989.179280994
42
-0.0161
10
7986.36957786
20
989.973765994
42
-0.0161
10
7987.24957886
20
990.675354994
42
-0.0175
10
7988.17457786
20
991.316265994
42
-0.0175
10
7989.11117786
20
991.872592994
42
-0.0183
10
7990.08513386
20
992.360432994
42
-0.0183
10
7991.07948786
20
992.770396994
42
-0.0184
10
7992.10124486
20
993.106265994
42
-0.0184
10
7993.15396886
20
993.368331994
42
-0.0177
10
7994.22291186
20
993.553765994
42
-0.0177
10
7995.33392986
20
993.666320994
42
-0.0164
10
7996.45013386
20
993.702932994
42
-0.0164
0
LWPOLYLINE
5
47
100
AcDbEntity
8
0
6
ByLayer
62
256
370
-1
100
AcDbPolyline
90
48
70
0
43
0
10
8021.28013386
20
969.082932994
42
0.0437
10
8021.22266086
20
969.739150994
42
-0.0133
10
8021.12513386
20
970.392932994
42
0.0004
10
8020.89354086
20
972.278044994
42
0.0001
10
8020.66013386
20
974.162932994
10
8011.86013386
20
974.162932994
10
8009.44013386
20
969.982932994
42
0.0205
10
8009.18517286
20
969.494573994
42
0.0316
10
8008.98263386
20
968.982932994
42
0.0319
10
8008.87171186
20
968.548416994
42
0.0466
10
8008.83013386
20
968.102932994
42
0.1421
10
8009.01263186
20
967.473564994
42
0.1282
10
8009.49513386
20
967.022932994
42
0.0966
10
8010.46152786
20
966.720131994
42
0.0278
10
8011.49013386
20
966.662932994
10
8011.49013386
20
965.642932994
10
8003.46013386
20
965.642932994
10
8003.46013386
20
966.662932994
42
0.0213
10
8003.96849486
20
966.800367994
42
0.029
10
8004.46013386
20
966.987932994
42
0.0292
10
8004.86609286
20
967.199684994
42
0.0371
10
8005.24013386
20
967.462932994
42
0.038
10
8005.63393186
20
967.840908994
42
0.0165
10
8005.98513386
20
968.260432994
42
0.0174
10
8006.43960086
20
968.884813994
42
0.0094
10
8006.86013386
20
969.532932994
10
8022.10013386
20
993.622932994
10
8023.12013386
20
993.622932994
10
8027.05013386
20
970.192932994
42
0.009
10
8027.23406886
20
969.244091994
42
0.0241
10
8027.48013386
20
968.310432994
42
0.0163
10
8027.66158686
20
967.794901994
42
0.0989
10
8027.95013386
20
967.342932994
42
0.1068
10
8028.35930886
20
967.073351994
42
0.0271
10
8028.83513386
20
966.917932994
42
0.032
10
8029.65622286
20
966.753603994
42
0.0126
10
8030.49013386
20
966.662932994
10
8030.49013386
20
965.642932994
10
8018.04013386
20
965.642932994
10
8018.04013386
20
966.662932994
42
0.0115
10
8018.86321886
20
966.769915994
42
0.0259
10
8019.67513386
20
966.937932994
42
0.0229
10
8020.17957186
20
967.094829994
42
0.0735
10
8020.64013386
20
967.342932994
42
0.0847
10
8020.92864986
20
967.641438994
42
0.0618
10
8021.12013386
20
968.012932994
42
0.0579
10
8021.24720086
20
968.539551994
42
0.0303
10
8021.28013386
20
969.082932994
42
0.0303
0
LWPOLYLINE
5
48
100
AcDbEntity
8
0
6
ByLayer
62
256
370
-1
100
AcDbPolyline
90
4
70
0
43
0
10
8012.80013386
20
975.802932994
10
8020.38013386
20
975.802932994
10
8018.86013386
20
985.752932994
10
8012.80013386
20
975.802932994
0
LWPOLYLINE
5
49
100
AcDbEntity
8
0
6
ByLayer
62
256
370
-1
100
AcDbPolyline
90
80
70
0
43
0
10
8070.72013386
20
993.042932994
10
8070.72013386
20
992.022932994
42
0.0181
10
8070.04210086
20
991.906566994
42
0.0323
10
8069.38013386
20
991.722932994
42
0.0322
10
8068.90724186
20
991.523254994
42
0.0585
10
8068.48013386
20
991.242932994
42
0.0667
10
8068.13669386
20
990.861208994
42
0.0344
10
8067.87513386
20
990.415432994
42
0.0345
10
8067.60240486
20
989.757295994
42
0.0183
10
8067.40013386
20
989.072932994
10
8062.28013386
20
970.272932994
42
0.0084
10
8062.14409186
20
969.748232994
42
0.0149
10
8062.03263386
20
969.217932994
42
0.0142
10
8061.97392986
20
968.826985994
42
0.0302
10
8061.95013386
20
968.432932994
42
0.0349
10
8061.97973986
20
968.009443994
42
0.0657
10
8062.09263386
20
967.602932994
42
0.0708
10
8062.26712486
20
967.314109994
42
0.084
10
8062.52013386
20
967.092932994
42
0.0692
10
8062.94843586
20
966.915820994
42
0.0188
10
8063.40513386
20
966.815432994
42
0.0224
10
8064.14987186
20
966.715138994
42
0.0098
10
8064.90013386
20
966.662932994
10
8064.90013386
20
965.642932994
10
8052.12013386
20
965.642932994
10
8052.12013386
20
966.662932994
42
0.0157
10
8052.98262286
20
966.745983994
42
0.0304
10
8053.83263386
20
966.907932994
42
0.0297
10
8054.41549986
20
967.093726994
42
0.064
10
8054.95013386
20
967.382932994
42
0.0666
10
8055.35880086
20
967.768791994
42
0.0409
10
8055.67763386
20
968.235432994
42
0.04
10
8055.99167086
20
968.906457994
42
0.0225
10
8056.22013386
20
969.612932994
10
8061.34013386
20
988.622932994
10
8045.98013386
20
965.152932994
10
8044.83013386
20
965.152932994
10
8042.09013386
20
988.052932994
10
8037.95013386
20
972.932932994
42
0.0044
10
8037.63937086
20
971.748549994
42
0.011
10
8037.36513386
20
970.555432994
42
0.007
10
8037.23190686
20
969.862839994
42
0.044
10
8037.17013386
20
969.162932994
42
0.0309
10
8037.20391386
20
968.616946994
42
0.0576
10
8037.33263386
20
968.087932994
42
0.0613
10
8037.52788086
20
967.709372994
42
0.0817
10
8037.82013386
20
967.402932994
42
0.0683
10
8038.29217986
20
967.143732994
42
0.0229
10
8038.80763386
20
966.972932994
42
0.0254
10
8039.62272786
20
966.787601994
42
0.0117
10
8040.45013386
20
966.662932994
10
8040.45013386
20
965.642932994
10
8031.97013386
20
965.642932994
10
8031.97013386
20
966.662932994
42
0.0284
10
8032.70196286
20
966.868265994
42
0.0471
10
8033.39263386
20
967.180432994
42
0.0488
10
8033.89387486
20
967.535411994
42
0.0656
10
8034.30013386
20
967.992932994
42
0.0544
10
8034.74325086
20
968.826302994
42
0.0072
10
8035.08263386
20
969.712932994
42
0.0125
10
8035.62419186
20
971.313822994
42
0.0048
10
8036.11013386
20
972.932932994
10
8040.57013386
20
988.212932994
42
0.0074
10
8040.75397286
20
988.905635994
42
0.0143
10
8040.90763386
20
989.605432994
42
0.0131
10
8040.98688286
20
990.092018994
42
0.0338
10
8041.02013386
20
990.582932994
42
0.0355
10
8040.99436486
20
990.944990994
42
0.0723
10
8040.89263386
20
991.290432994
42
0.0794
10
8040.73572686
20
991.525174994
42
0.0921
10
8040.51013386
20
991.692932994
42
0.0699
10
8040.08806686
20
991.831002994
42
0.0105
10
8039.64513386
20
991.900432994
42
0.0168
10
8038.85924686
20
991.979981994
42
0.0065
10
8038.07013386
20
992.022932994
10
8038.07013386
20
993.042932994
10
8047.13013386
20
993.042932994
10
8049.34013386
20
973.382932994
10
8062.03013386
20
993.042932994
10
8070.72013386
20
993.042932994
0
LWPOLYLINE
5
4A
100
AcDbEntity
8
0
6
ByLayer
62
256
370
-1
100
AcDbPolyline
90
179
70
0
43
0
10
8094.68013386
20
968.062932994
42
0.1944
10
8095.30753486
20
968.316507994
42
0.0165
10
8095.81513386
20
968.840432994
42
0.0337
10
8096.70757686
20
969.968759994
42
0.0099
10
8097.50013386
20
971.172932994
10
8098.41013386
20
970.642932994
42
-0.0106
10
8097.59045686
20
969.334679994
42
-0.019
10
8096.69513386
20
968.077932994
42
-0.0183
10
8095.97838986
20
967.215969994
42
-0.0387
10
8095.17013386
20
966.442932994
42
-0.0413
10
8094.43549586
20
965.936854994
42
-0.0455
10
8093.62513386
20
965.565432994
42
-0.0454
10
8092.75051086
20
965.343902994
42
-0.0394
10
8091.85013386
20
965.272932994
42
-0.059
10
8090.74654986
20
965.403644994
42
-0.1306
10
8089.79513386
20
965.917932994
42
-0.1351
10
8089.25743786
20
966.801119994
42
-0.0697
10
8089.11013386
20
967.852932994
42
-0.0288
10
8089.15658286
20
968.659908994
42
-0.015
10
8089.27346686
20
969.460710994
42
-0.0154
10
8089.49272286
20
970.511577994
42
-0.0092
10
8089.76346686
20
971.550710994
42
-0.0093
10
8090.15186286
20
972.843081994
42
-0.0061
10
8090.58013386
20
974.122932994
10
8092.43013386
20
979.482932994
42
0.0044
10
8092.54128786
20
979.872576994
42
0.0113
10
8092.64013386
20
980.265432994
42
0.0064
10
8092.68775186
20
980.487764994
42
0.0496
10
8092.71013386
20
980.712932994
42
0.0569
10
8092.69180586
20
980.873348994
42
0.0574
10
8092.63763386
20
981.025432994
42
0.0561
10
8092.54238286
20
981.174409994
42
0.0398
10
8092.42013386
20
981.302932994
42
0.042
10
8092.27823186
20
981.418437994
42
0.0514
10
8092.11763386
20
981.505432994
42
0.0517
10
8091.94730186
20
981.556322994
42
0.0468
10
8091.77013386
20
981.572932994
42
0.1074
10
8091.06137286
20
981.418859994
42
0.0513
10
8090.42457786
20
981.045154994
42
0.0493
10
8089.60512786
20
980.309144994
42
0.0213
10
8088.89457786
20
979.461821994
42
0.0224
10
8087.99255286
20
978.172169994
42
0.0118
10
8087.18013386
20
976.822932994
42
0.0089
10
8086.67452986
20
975.922581994
42
0.011
10
8086.20513386
20
975.002932994
42
0.011
10
8085.82152686
20
974.161864994
42
0.0138
10
8085.48013386
20
973.302932994
42
0.0063
10
8085.20784086
20
972.515047994
42
0.0015
10
8084.94791186
20
971.722932994
42
0.002
10
8084.53926286
20
970.447427994
42
0.0009
10
8084.13791186
20
969.169599994
42
0.0009
10
8083.59141286
20
967.407072994
42
0.0005
10
8083.05013386
20
965.642932994
10
8078.13013386
20
965.642932994
10
8080.79013386
20
974.122932994
42
0.0016
10
8081.31211286
20
975.746502994
42
0.0033
10
8081.81791186
20
977.375154994
42
0.0029
10
8082.13908086
20
978.456590994
42
0.0089
10
8082.43457786
20
979.545154994
42
-0.0006
10
8082.57141586
20
980.084811994
42
0.0624
10
8082.64013386
20
980.632932994
42
0.0353
10
8082.62678686
20
980.821752994
42
0.0474
10
8082.58263386
20
981.005432994
42
0.0482
10
8082.51104986
20
981.162725994
42
0.0502
10
8082.41013386
20
981.302932994
42
0.047
10
8082.29714186
20
981.417713994
42
0.0608
10
8082.16263386
20
981.505432994
42
0.0614
10
8082.01540086
20
981.556480994
42
0.0528
10
8081.86013386
20
981.572932994
42
0.0798
10
8081.60517186
20
981.531998994
42
0.0303
10
8081.36263386
20
981.435432994
42
0.032
10
8081.01700586
20
981.245081994
42
0.0148
10
8080.69013386
20
981.022932994
42
0.0152
10
8080.31010186
20
980.729946994
42
0.0138
10
8079.94763386
20
980.415432994
42
0.0138
10
8079.58447686
20
980.063421994
42
0.0123
10
8079.24013386
20
979.692932994
42
0.0211
10
8078.38073386
20
978.554130994
42
0.017
10
8077.61013386
20
977.352932994
42
0.017
10
8076.84195086
20
975.955169994
42
0.0135
10
8076.16013386
20
974.512932994
42
0.0078
10
8075.80371986
20
973.660998994
42
0.0055
10
8075.47013386
20
972.799807994
42
0.0055
10
8075.10027786
20
971.778598994
42
0.0041
10
8074.75013386
20
970.750432994
42
0.0041
10
8074.36648686
20
969.560347994
42
0.0031
10
8074.00013386
20
968.364807994
42
0.0032
10
8073.60244386
20
967.006079994
42
0.0025
10
8073.22013386
20
965.642932994
10
8068.26013386
20
965.642932994
10
8071.00013386
20
975.392932994
42
0.0017
10
8071.40735886
20
976.836501994
42
0.0033
10
8071.80013386
20
978.284043994
42
0.0029
10
8072.05138086
20
979.258013994
42
0.0086
10
8072.28013386
20
980.237376994
42
0.0016
10
8072.38732486
20
980.742257994
42
0.0516
10
8072.44013386
20
981.252932994
42
0.1363
10
8072.31213386
20
981.713833994
42
0.1302
10
8071.96763386
20
982.047932994
42
0.099
10
8071.28235986
20
982.270281994
42
0.0291
10
8070.55013386
20
982.312932994
10
8070.23013386
20
982.312932994
10
8070.23013386
20
983.422932994
42
0.0027
10
8071.46174986
20
983.526725994
42
0.0034
10
8072.69200886
20
983.645432994
42
0.0034
10
8073.78581386
20
983.765824994
42
0.0043
10
8074.87763386
20
983.902932994
42
0.0043
10
8075.83378786
20
984.039696994
42
0.0057
10
8076.78700886
20
984.195432994
42
0.0056
10
8077.60578586
20
984.348257994
42
0.0078
10
8078.42013386
20
984.522932994
10
8075.80013386
20
976.372932994
42
-0.0016
10
8076.36894586
20
977.249104994
42
-0.0026
10
8076.94513386
20
978.120432994
42
-0.0025
10
8077.38778086
20
978.775034994
42
-0.0049
10
8077.84013386
20
979.422932994
42
-0.0081
10
8078.27584586
20
980.011526994
42
-0.0057
10
8078.72763386
20
980.587932994
42
-0.0057
10
8079.27228986
20
981.250944994
42
-0.0043
10
8079.83013386
20
981.902932994
42
-0.0168
10
8080.41142586
20
982.527137994
42
-0.023
10
8081.04013386
20
983.102932994
42
-0.0231
10
8081.62327686
20
983.545732994
42
-0.0308
10
8082.25013386
20
983.922932994
42
-0.0273
10
8082.84871986
20
984.198854994
42
-0.0312
10
8083.47513386
20
984.402932994
42
-0.0313
10
8084.09759686
20
984.522607994
42
-0.0318
10
8084.73013386
20
984.562932994
42
-0.0366
10
8085.30663786
20
984.520713994
42
-0.0521
10
8085.86513386
20
984.377932994
42
-0.0534
10
8086.32826386
20
984.147875994
42
-0.0562
10
8086.73013386
20
983.822932994
42
-0.058
10
8087.05627086
20
983.416613994
42
-0.0532
10
8087.28513386
20
982.947932994
42
-0.0517
10
8087.42830386
20
982.374338994
42
-0.0353
10
8087.47013386
20
981.782932994
42
-0.0428
10
8087.39217486
20
980.873533994
42
-0.0188
10
8087.20263386
20
979.977932994
42
-0.0198
10
8086.83874086
20
978.738599994
42
-0.0106
10
8086.40013386
20
977.522932994
42
-0.0055
10
8087.19863786
20
978.741907994
42
-0.0082
10
8088.03013386
20
979.938488994
42
-0.0081
10
8088.72885686
20
980.877241994
42
-0.0132
10
8089.46680086
20
981.785154994
42
-0.0129
10
8090.06508386
20
982.447313994
42
-0.0241
10
8090.71013386
20
983.062932994
42
-0.0379
10
8091.56777186
20
983.703280994
42
-0.0474
10
8092.52013386
20
984.187932994
42
-0.0479
10
8093.49729686
20
984.469198994
42
-0.0462
10
8094.51013386
20
984.562932994
42
-0.0391
10
8095.14260086
20
984.513358994
42
-0.0499
10
8095.75513386
20
984.352932994
42
-0.0505
10
8096.29374186
20
984.088286994
42
-0.0484
10
8096.77013386
20
983.722932994
42
-0.0464
10
8097.15580586
20
983.289524994
42
-0.0557
10
8097.44513386
20
982.787932994
42
-0.0558
10
8097.61566386
20
982.237555994
42
-0.0473
10
8097.67013386
20
981.662932994
42
-0.034
10
8097.60386186
20
980.688759994
42
-0.0188
10
8097.43513386
20
979.725432994
42
-0.0191
10
8097.12041586
20
978.488628994
42
-0.0116
10
8096.73013386
20
977.272932994
10
8094.88013386
20
971.822932994
42
0.0031
10
8094.54468386
20
970.815718994
42
0.0097
10
8094.23513386
20
969.800432994
42
-0.0012
10
8094.09221386
20
969.301611994
42
0.0705
10
8094.02013386
20
968.792932994
10
8094.02013386
20
968.752932994
10
8094.02013386
20
968.712932994
10
8094.02013386
20
968.672932994
10
8094.02013386
20
968.632932994
42
0.058
10
8094.03189786
20
968.531824994
42
0.0502
10
8094.06513386
20
968.435432994
42
0.0488
10
8094.12468386
20
968.333796994
42
0.0327
10
8094.20013386
20
968.242932994
42
0.0489
10
8094.30089086
20
968.164642994
42
0.051
10
8094.41513386
20
968.107932994
42
0.0504
10
8094.54547686
20
968.073538994
42
0.0393
10
8094.68013386
20
968.062932994
42
0.0393
0
LWPOLYLINE
5
4B
100
AcDbEntity
8
0
6
ByLayer
62
256
370
-1
100
AcDbPolyline
90
62
70
0
43
0
10
8109.50013386
20
971.422932994
10
8110.40013386
20
970.842932994
42
-0.0078
10
8109.44100786
20
969.462575994
42
-0.015
10
8108.42013386
20
968.127932994
42
-0.0139
10
8107.66044886
20
967.245504994
42
-0.0349
10
8106.82013386
20
966.442932994
42
-0.0411
10
8106.09808086
20
965.937693994
42
-0.046
10
8105.30013386
20
965.565432994
42
-0.046
10
8104.44319486
20
965.344123994
42
-0.0402
10
8103.56013386
20
965.272932994
42
-0.0351
10
8102.97833486
20
965.313845994
42
-0.0483
10
8102.41263386
20
965.450432994
42
-0.0492
10
8101.93419886
20
965.670909994
42
-0.0521
10
8101.51013386
20
965.982932994
42
-0.0513
10
8101.17676686
20
966.365844994
42
-0.0558
10
8100.93263386
20
966.810432994
42
-0.0552
10
8100.78544086
20
967.321604994
42
-0.0426
10
8100.74013386
20
967.852932994
42
-0.0319
10
8100.77859786
20
968.454261994
42
-0.0143
10
8100.87263386
20
969.050432994
42
-0.0151
10
8101.05219186
20
969.871218994
42
-0.0084
10
8101.27013386
20
970.682932994
10
8103.65013386
20
979.482932994
42
0.004
10
8103.76215386
20
979.994035994
42
0.0096
10
8103.86013386
20
980.507932994
42
0.0068
10
8103.90818386
20
980.814326994
42
0.0355
10
8103.93013386
20
981.122932994
42
0.0533
10
8103.89906386
20
981.413336994
42
0.0816
10
8103.79263386
20
981.682932994
42
0.0834
10
8103.61373586
20
981.893081994
42
0.0645
10
8103.38013386
20
982.042932994
42
0.0556
10
8103.01901186
20
982.172856994
42
0.0226
10
8102.64013386
20
982.245432994
42
0.024
10
8102.08159086
20
982.299358994
42
0.0121
10
8101.52013386
20
982.312932994
10
8101.52013386
20
983.422932994
42
0.0032
10
8102.66992586
20
983.519985994
42
0.0037
10
8103.81825886
20
983.632932994
42
0.0037
10
8104.89147686
20
983.754467994
42
0.0042
10
8105.96263386
20
983.892932994
42
0.0042
10
8106.95935886
20
984.038898994
42
0.0049
10
8107.95325886
20
984.202932994
42
0.0049
10
8108.87359686
20
984.373275994
42
0.0057
10
8109.79013386
20
984.562932994
10
8106.06013386
20
970.882932994
42
0.0062
10
8105.90954886
20
970.251696994
42
0.0124
10
8105.78263386
20
969.615432994
42
0.0111
10
8105.71778786
20
969.185785994
42
0.0319
10
8105.69013386
20
968.752932994
42
0.0481
10
8105.70132986
20
968.636911994
42
0.0511
10
8105.73513386
20
968.525432994
42
0.0505
10
8105.79338286
20
968.418155994
42
0.04
10
8105.87013386
20
968.322932994
42
0.0418
10
8105.96645686
20
968.245866994
42
0.0508
10
8106.07513386
20
968.187932994
42
0.051
10
8106.19038586
20
968.154000994
42
0.0461
10
8106.31013386
20
968.142932994
42
0.1513
10
8106.92854686
20
968.334456994
42
0.0383
10
8107.45513386
20
968.757932994
42
0.0426
10
8108.24429286
20
969.636704994
42
0.0146
10
8108.93013386
20
970.602932994
10
8109.50013386
20
971.422932994
0
LWPOLYLINE
5
4C
100
AcDbEntity
8
0
6
ByLayer
62
256
370
-1
100
AcDbPolyline
90
33
70
0
43
0
10
8108.60013386
20
993.702932994
42
-0.0456
10
8109.14677686
20
993.652933994
42
-0.0522
10
8109.67263386
20
993.497932994
42
-0.052
10
8110.16050786
20
993.234681994
42
-0.0437
10
8110.59013386
20
992.882932994
42
-0.0448
10
8110.95005686
20
992.462432994
42
-0.0539
10
8111.22013386
20
991.980432994
42
-0.054
10
8111.37902186
20
991.457691994
42
-0.0468
10
8111.43013386
20
990.912932994
42
-0.046
10
8111.38046486
20
990.374725994
42
-0.054
10
8111.22513386
20
989.857932994
42
-0.054
10
8110.96205086
20
989.385121994
42
-0.0456
10
8110.61013386
20
988.972932994
42
-0.0465
10
8110.18329086
20
988.627645994
42
-0.0522
10
8109.69763386
20
988.372932994
42
-0.0519
10
8109.15885886
20
988.220898994
42
-0.0428
10
8108.60013386
20
988.172932994
42
-0.046
10
8108.06427686
20
988.222368994
42
-0.055
10
8107.55013386
20
988.377932994
42
-0.055
10
8107.08412586
20
988.640783994
42
-0.0468
10
8106.68013386
20
988.992932994
42
-0.046
10
8106.34314886
20
989.419661994
42
-0.0512
10
8106.09513386
20
989.902932994
42
-0.0509
10
8105.94690286
20
990.438389994
42
-0.0421
10
8105.90013386
20
990.992932994
42
-0.0493
10
8105.95094186
20
991.507412994
42
-0.0532
10
8106.10513386
20
992.000432994
42
-0.0526
10
8106.37070286
20
992.470208994
42
-0.0415
10
8106.72013386
20
992.882932994
42
-0.041
10
8107.13176986
20
993.232039994
42
-0.0526
10
8107.60013386
20
993.497932994
42
-0.0532
10
8108.08937886
20
993.651989994
42
-0.0497
10
8108.60013386
20
993.702932994
42
-0.0497
0
LWPOLYLINE
5
4D
100
AcDbEntity
8
0
6
ByLayer
62
256
370
-1
100
AcDbPolyline
90
65
70
0
43
0
10
8121.55013386
20
971.422932994
10
8122.45013386
20
970.842932994
42
-0.0088
10
8121.50310386
20
969.460288994
42
-0.0166
10
8120.48763386
20
968.127932994
42
-0.0155
10
8119.71740186
20
967.241530994
42
-0.0372
10
8118.86013386
20
966.442932994
42
-0.0406
10
8118.11743986
20
965.937163994
42
-0.045
10
8117.30013386
20
965.565432994
42
-0.0449
10
8116.42290386
20
965.344104994
42
-0.0394
10
8115.52013386
20
965.272932994
42
-0.0345
10
8114.96021286
20
965.311600994
42
-0.0471
10
8114.41513386
20
965.440432994
42
-0.048
10
8113.95252686
20
965.648277994
42
-0.0511
10
8113.54013386
20
965.942932994
42
-0.0523
10
8113.21153986
20
966.305481994
42
-0.0576
10
8112.97013386
20
966.730432994
42
-0.0569
10
8112.82477786
20
967.221435994
42
-0.0436
10
8112.78013386
20
967.732932994
42
-0.035
10
8112.82776086
20
968.412738994
42
-0.0086
10
8112.93457786
20
969.087376994
42
-0.0109
10
8113.14928586
20
970.169246994
42
-0.0048
10
8113.39791186
20
971.244043994
42
-0.0051
10
8113.77213786
20
972.726561994
42
-0.0029
10
8114.17013386
20
974.202932994
10
8117.20013386
20
985.012932994
42
0.0027
10
8117.59938086
20
986.371109994
42
0.0049
10
8117.97791186
20
987.735154994
42
0.0046
10
8118.22645486
20
988.701601994
42
0.0111
10
8118.44457786
20
989.675154994
42
0.0076
10
8118.55119986
20
990.251175994
42
0.042
10
8118.60013386
20
990.832932994
42
0.0801
10
8118.52101386
20
991.323521994
42
0.1375
10
8118.25013386
20
991.725432994
42
0.1256
10
8117.75872886
20
991.965579994
42
0.0512
10
8117.20013386
20
992.022932994
42
0.0108
10
8116.93998486
20
992.017333994
42
0.0062
10
8116.68013386
20
992.002932994
42
0.0063
10
8116.34983086
20
991.976353994
42
0.0041
10
8116.02013386
20
991.942932994
10
8116.02013386
20
993.042932994
42
0.0031
10
8117.11709886
20
993.151453994
42
0.0031
10
8118.21263386
20
993.273557994
42
0.0031
10
8119.29228086
20
993.407634994
42
0.0032
10
8120.37013386
20
993.555432994
42
0.0032
10
8121.43247086
20
993.715072994
42
0.0033
10
8122.49263386
20
993.888557994
42
0.0033
10
8123.53766886
20
994.073769994
42
0.0034
10
8124.58013386
20
994.272932994
10
8118.64013386
20
972.852932994
42
0.0029
10
8118.28718286
20
971.504195994
42
0.0085
10
8117.96513386
20
970.147932994
42
0.0012
10
8117.81460186
20
969.454557994
42
0.0529
10
8117.74013386
20
968.752932994
42
0.0481
10
8117.75132986
20
968.636911994
42
0.0511
10
8117.78513386
20
968.525432994
42
0.0505
10
8117.84338286
20
968.418155994
42
0.04
10
8117.92013386
20
968.322932994
42
0.04
10
8118.01535686
20
968.246181994
42
0.0505
10
8118.12263386
20
968.187932994
42
0.0511
10
8118.23411286
20
968.154128994
42
0.0481
10
8118.35013386
20
968.142932994
42
0.1821
10
8119.05591186
20
968.408724994
42
0.0194
10
8119.64013386
20
968.962932994
42
0.0342
10
8120.64890586
20
970.149089994
42
0.0104
10
8121.55013386
20
971.422932994
42
0.0104
0
LWPOLYLINE
5
4E
100
AcDbEntity
8
0
6
ByLayer
62
256
370
-1
100
AcDbPolyline
90
65
70
0
43
0
10
8133.59013386
20
971.422932994
10
8134.49013386
20
970.842932994
42
-0.0088
10
8133.54310386
20
969.460288994
42
-0.0166
10
8132.52763386
20
968.127932994
42
-0.0155
10
8131.75740186
20
967.241530994
42
-0.0372
10
8130.90013386
20
966.442932994
42
-0.0406
10
8130.15743986
20
965.937163994
42
-0.045
10
8129.34013386
20
965.565432994
42
-0.0449
10
8128.46290386
20
965.344104994
42
-0.0394
10
8127.56013386
20
965.272932994
42
-0.0345
10
8127.00021286
20
965.311600994
42
-0.0471
10
8126.45513386
20
965.440432994
42
-0.048
10
8125.99252686
20
965.648277994
42
-0.0511
10
8125.58013386
20
965.942932994
42
-0.0523
10
8125.25153986
20
966.305481994
42
-0.0576
10
8125.01013386
20
966.730432994
42
-0.0569
10
8124.86477786
20
967.221435994
42
-0.0436
10
8124.82013386
20
967.732932994
42
-0.035
10
8124.86776086
20
968.412738994
42
-0.0086
10
8124.97457786
20
969.087376994
42
-0.0109
10
8125.18928586
20
970.169246994
42
-0.0048
10
8125.43791186
20
971.244043994
42
-0.0051
10
8125.81213786
20
972.726561994
42
-0.0029
10
8126.21013386
20
974.202932994
10
8129.24013386
20
985.012932994
42
0.0027
10
8129.63938086
20
986.371109994
42
0.0049
10
8130.01791186
20
987.735154994
42
0.0046
10
8130.26645486
20
988.701601994
42
0.0111
10
8130.48457786
20
989.675154994
42
0.0076
10
8130.59119986
20
990.251175994
42
0.042
10
8130.64013386
20
990.832932994
42
0.0801
10
8130.56101386
20
991.323521994
42
0.1375
10
8130.29013386
20
991.725432994
42
0.1256
10
8129.79872886
20
991.965579994
42
0.0512
10
8129.24013386
20
992.022932994
42
0.0108
10
8128.97998486
20
992.017333994
42
0.0062
10
8128.72013386
20
992.002932994
42
0.0063
10
8128.38983086
20
991.976353994
42
0.0041
10
8128.06013386
20
991.942932994
10
8128.06013386
20
993.042932994
42
0.0031
10
8129.15709886
20
993.151453994
42
0.0031
10
8130.25263386
20
993.273557994
42
0.0031
10
8131.33228086
20
993.407634994
42
0.0032
10
8132.41013386
20
993.555432994
42
0.0032
10
8133.47247086
20
993.715072994
42
0.0033
10
8134.53263386
20
993.888557994
42
0.0033
10
8135.57766886
20
994.073769994
42
0.0034
10
8136.62013386
20
994.272932994
10
8130.68013386
20
972.852932994
42
0.0029
10
8130.32718286
20
971.504195994
42
0.0085
10
8130.00513386
20
970.147932994
42
0.0012
10
8129.85460186
20
969.454557994
42
0.0529
10
8129.78013386
20
968.752932994
42
0.0481
10
8129.79132986
20
968.636911994
42
0.0511
10
8129.82513386
20
968.525432994
42
0.0505
10
8129.88338286
20
968.418155994
42
0.04
10
8129.96013386
20
968.322932994
42
0.04
10
8130.05535686
20
968.246181994
42
0.0505
10
8130.16263386
20
968.187932994
42
0.0511
10
8130.27411286
20
968.154128994
42
0.0481
10
8130.39013386
20
968.142932994
42
0.1821
10
8131.09591186
20
968.408724994
42
0.0194
10
8131.68013386
20
968.962932994
42
0.0342
10
8132.68890586
20
970.149089994
42
0.0104
10
8133.59013386
20
971.422932994
42
0.0104
0
ENDSEC
0
SECTION
2
OBJECTS
0
DICTIONARY
5
C
330
0
100
AcDbDictionary
281
1
3
ACAD_GROUP
350
D
0
DICTIONARY
5
D
330
C
100
AcDbDictionary
281
1
0
ENDSEC
0
EOF
